<?xml version="1.0" standalone="no"?>
<!DOCTYPE svg PUBLIC "-//W3C//DTD SVG 20010904//EN"
 "http://www.w3.org/TR/2001/REC-SVG-20010904/DTD/svg10.dtd">
<svg version="1.0" xmlns="http://www.w3.org/2000/svg"
 width="700.000000pt" height="700.000000pt" viewBox="0 0 700.000000 700.000000"
 preserveAspectRatio="xMidYMid meet">
<metadata>
Created by potrace 1.11, written by Peter Selinger 2001-2013
</metadata>
<g transform="translate(0.000000,700.000000) scale(0.100000,-0.100000)"
fill="#000000" stroke="none">
<path d="M3576 6805 c-42 -15 -104 -61 -191 -143 -166 -156 -343 -322 -370
-347 -16 -15 -77 -71 -135 -125 -58 -54 -118 -110 -135 -126 -16 -15 -82 -75
-145 -134 -63 -59 -131 -122 -150 -140 -34 -32 -167 -155 -450 -420 -21 -19
-84 -78 -140 -130 -57 -52 -117 -108 -135 -125 -17 -16 -87 -82 -155 -145 -69
-63 -136 -126 -151 -140 -14 -14 -74 -70 -134 -125 -59 -55 -124 -116 -144
-135 -37 -35 -240 -223 -296 -275 -16 -15 -59 -55 -95 -88 -36 -34 -126 -118
-200 -187 -327 -304 -355 -336 -364 -412 -5 -43 20 -89 85 -158 46 -49 164
-176 334 -359 174 -187 188 -197 262 -186 47 7 121 58 214 146 31 30 85 81
120 113 35 32 114 105 174 162 61 56 124 115 140 130 17 15 88 81 160 148 71
66 161 150 199 186 39 36 101 94 139 130 38 36 74 68 81 72 9 5 42 -24 99 -85
47 -50 102 -110 124 -133 106 -113 271 -291 295 -318 l26 -30 -27 -26 c-204
-190 -286 -266 -336 -312 -93 -87 -176 -164 -340 -317 -39 -36 -124 -115 -189
-176 -249 -230 -296 -286 -296 -350 0 -38 23 -85 61 -126 19 -20 88 -94 154
-165 377 -406 372 -401 422 -409 71 -11 116 14 263 150 41 38 80 74 86 80 18
17 222 207 273 253 107 101 143 135 286 268 82 76 162 150 176 164 14 14 73
68 130 121 57 53 120 112 140 130 51 48 260 242 273 254 6 6 49 46 95 90 64
61 82 74 77 55 -4 -14 -8 -32 -10 -40 -2 -8 -32 -107 -66 -220 -34 -113 -66
-221 -72 -240 -5 -19 -46 -154 -90 -300 -44 -146 -81 -272 -83 -280 -3 -8 -29
-98 -60 -200 -31 -102 -58 -194 -60 -204 -6 -27 -60 -81 -205 -205 -180 -153
-185 -157 -288 -256 -142 -136 -211 -236 -216 -312 -3 -42 7 -58 89 -145 78
-82 275 -294 325 -348 92 -101 155 -161 174 -165 99 -22 137 0 357 206 49 46
256 239 299 279 19 18 87 81 150 140 63 59 131 122 150 140 19 18 82 76 140
130 58 54 119 111 135 126 17 15 81 75 144 133 62 58 128 120 146 136 58 54
278 260 305 285 15 14 80 75 145 135 65 61 128 119 139 130 12 11 111 103 221
205 110 102 213 199 231 215 17 17 78 73 135 126 57 53 120 112 140 130 66 62
244 227 274 254 163 148 346 331 360 362 21 44 23 113 4 140 -19 28 -81 96
-223 248 -180 193 -220 236 -266 285 -23 25 -54 53 -69 62 -55 37 -146 14
-223 -55 -35 -31 -199 -182 -274 -252 -17 -16 -85 -80 -150 -141 -66 -61 -144
-134 -174 -162 -30 -28 -73 -68 -96 -89 -271 -253 -358 -333 -361 -330 -1 2 7
36 18 77 12 41 34 122 49 180 79 294 257 941 311 1135 82 292 90 328 91 407 1
83 -33 159 -91 206 -21 17 -78 80 -126 139 -158 194 -238 260 -330 271 -60 6
-94 -15 -235 -148 -68 -63 -131 -122 -140 -130 -10 -8 -75 -70 -146 -136 -71
-67 -143 -134 -160 -150 -17 -16 -82 -76 -144 -134 -62 -58 -124 -116 -139
-129 -14 -13 -77 -72 -139 -130 -62 -58 -117 -107 -121 -109 -5 -2 -175 173
-244 251 -20 23 -228 246 -269 289 l-27 28 56 52 c103 98 130 123 194 182 35
32 96 89 134 125 39 36 131 122 205 191 74 69 168 157 210 196 41 39 109 102
150 140 175 162 203 197 214 265 8 53 -20 98 -149 235 -60 64 -123 131 -139
148 -15 17 -58 63 -94 101 -206 221 -205 220 -258 228 -17 3 -47 -1 -68 -8z"/>
</g>
</svg>
