<?xml version="1.0" encoding="utf-8"?>
<!-- Generator: Adobe Illustrator 24.2.1, SVG Export Plug-In . SVG Version: 6.00 Build 0)  -->
<svg version="1.1" id="Layer_1" xmlns="http://www.w3.org/2000/svg" xmlns:xlink="http://www.w3.org/1999/xlink" x="0px" y="0px"
	 viewBox="0 0 512 512" style="enable-background:new 0 0 512 512;" xml:space="preserve">
<path d="M490.66,276.44L259.75,491.51c-8.91,8.3-15.43,9.14-21.28,2.86l-35.28-37.88c-17.68-13.27,41.88-51.77,48.22-61.87
	l33.54-111.86L167.34,392.3c-8.91,8.3-15.4,9.17-21.28,2.86l-36.44-39.12c-5.88-6.31-4.55-12.72,4.36-21.02l79.11-73.68
	l-39.25-42.14l-79.11,73.68c-8.91,8.3-15.43,9.14-21.31,2.83l-36.44-39.12c-5.85-6.28-4.55-12.72,4.36-21.02L252.25,20.49
	c8.91-8.3,15.43-9.14,21.28-2.86l36.44,39.12c5.88,6.31,4.58,12.75-4.33,21.05l-77.35,72.05l39.25,42.14l77.35-72.05
	c18.23-21.55,34.81,16.03,46.92,24.66c10.62,8.65,3.52,26.37,0.25,38.39c0,0-29.5,108.1-29.5,108.1l75.9-70.7
	c8.91-8.3,15.4-9.17,21.28-2.86l35.28,37.88C500.87,261.7,499.57,268.14,490.66,276.44z"/>
</svg>
