<?xml version="1.0" encoding="utf-8"?>
<!-- Generator: Adobe Illustrator 24.2.1, SVG Export Plug-In . SVG Version: 6.00 Build 0)  -->
<svg version="1.1" id="Layer_1" xmlns="http://www.w3.org/2000/svg" xmlns:xlink="http://www.w3.org/1999/xlink" x="0px" y="0px"
	 viewBox="0 0 512 388" style="enable-background:new 0 0 512 388;" xml:space="preserve">
<g>
	<g>
		<path d="M7.35,357c-2.03,0-2.92-0.89-2.92-2.92v-52.59c0-2.03,0.89-2.92,2.92-2.92h12.58c2.03,0,2.92,0.89,2.92,2.92v17.61H36.4
			v-17.61c0-2.03,0.89-2.92,2.92-2.92H51.9c2.03,0,2.92,0.89,2.92,2.92v52.59c0,2.03-0.89,2.92-2.92,2.92H39.32
			c-2.03,0-2.92-0.89-2.92-2.92v-18.02H22.85v18.02c0,2.03-0.89,2.92-2.92,2.92H7.35z"/>
		<path d="M79.66,357H67.73c-2.03,0-2.92-0.89-2.92-2.92v-21.43c0-3.25,0.97-7.3,3.17-12.99l7.06-18.42
			c0.65-1.87,1.95-2.68,4.14-2.68h21.83c2.11,0,3.41,0.81,4.06,2.68l7.06,18.42c2.19,5.68,3.17,9.74,3.17,12.99v21.43
			c0,2.03-0.89,2.92-2.92,2.92h-12.26c-2.19,0-3.17-0.89-3.17-2.92v-11.36H82.59v11.36C82.59,356.11,81.69,357,79.66,357z
			 M83.4,327.94h12.74l-3.81-12.34c-0.41-0.97-0.89-1.38-1.54-1.38h-2.03c-0.65,0-1.14,0.41-1.54,1.38L83.4,327.94z"/>
		<path d="M144.35,357c-13.63,0-19.97-5.28-19.97-16.56V315.2c0-11.36,6.33-16.64,19.97-16.64h19.8c2.03,0,2.92,0.89,2.92,2.92v9.82
			c0,2.03-0.89,2.92-2.92,2.92h-16.31c-3.41,0-4.95,1.3-4.95,4.06v19.32c0,2.68,1.54,3.9,4.95,3.9h16.31c2.03,0,2.92,0.89,2.92,2.92
			v9.66c0,2.03-0.89,2.92-2.92,2.92H144.35z"/>
		<path d="M179.18,357c-2.03,0-2.92-0.89-2.92-2.92v-52.59c0-2.03,0.89-2.92,2.92-2.92h12.58c2.03,0,2.92,0.89,2.92,2.92v18.67h3.25
			l8.36-18.91c0.81-1.95,1.95-2.68,4.06-2.68h12.5c1.87,0,2.52,0.97,1.79,2.68l-8.28,18.91c6.09,0.32,9.98,4.54,9.98,11.04v22.89
			c0,2.03-0.89,2.92-2.92,2.92h-12.5c-2.03,0-2.92-0.89-2.92-2.92v-15.83c0-1.79-0.89-2.76-2.6-2.76h-10.71v18.59
			c0,2.03-0.89,2.92-2.92,2.92H179.18z"/>
		<path d="M239.73,357c-2.03,0-2.92-0.89-2.92-2.92v-52.59c0-2.03,0.89-2.92,2.92-2.92h8.44c2.11,0,3.41,0.57,4.79,2.19l15.75,18.02
			v-17.29c0-2.03,0.89-2.92,2.92-2.92h12.17c2.03,0,2.92,0.89,2.92,2.92v52.59c0,2.03-0.89,2.92-2.92,2.92h-12.17
			c-2.03,0-2.92-0.89-2.92-2.92v-9.98l-13.88-16.8v26.78c0,2.03-0.89,2.92-2.92,2.92H239.73z"/>
		<path d="M322.27,358.22c-20.29,0-25.24-6.66-25.24-16.56v-27.68c0-9.9,4.95-16.64,25.24-16.64c20.29,0,25.16,6.74,25.16,16.64
			v27.68C347.43,351.56,342.56,358.22,322.27,358.22z M322.27,342.55c5.92,0,6.82-1.62,6.82-3.81v-21.83c0-2.11-0.89-3.73-6.82-3.73
			c-5.84,0-6.82,1.62-6.82,3.73v21.83C315.45,340.93,316.43,342.55,322.27,342.55z"/>
		<path d="M371.79,357c-2.03,0-2.92-0.89-2.92-2.92v-39.85h-11.93c-2.03,0-2.92-0.89-2.92-2.92v-9.82c0-2.03,0.89-2.92,2.92-2.92
			h42.85c2.03,0,2.92,0.89,2.92,2.92v9.82c0,2.03-0.89,2.92-2.92,2.92h-11.93v39.85c0,2.03-0.89,2.92-2.92,2.92H371.79z"/>
		<path d="M413.51,357c-2.03,0-2.92-0.89-2.92-2.92v-52.59c0-2.03,0.89-2.92,2.92-2.92h37.66c2.03,0,2.92,0.89,2.92,2.92v9.5
			c0,2.03-0.89,2.92-2.92,2.92h-22.4v6.25h15.83c2.03,0,2.92,0.89,2.92,2.92v8.68c0,2.03-0.89,2.92-2.92,2.92h-15.83v6.98h22.4
			c2.03,0,2.92,0.89,2.92,2.92v9.5c0,2.03-0.89,2.92-2.92,2.92H413.51z"/>
		<path d="M465.13,357c-2.03,0-2.92-0.89-2.92-2.92v-9.5c0-2.03,0.89-2.92,2.92-2.92h21.83c1.38,0,2.11-1.06,2.11-2.35
			c0-1.87-0.73-2.6-2.11-2.76l-12.17-1.7c-7.63-1.14-12.58-4.38-12.58-13.47v-8.52c0-9.25,6.25-14.28,16.8-14.28h22.73
			c2.03,0,2.92,0.89,2.92,2.92v9.66c0,2.03-0.89,2.92-2.92,2.92h-18.91c-1.38,0-2.19,0.97-2.19,2.44s0.81,2.43,2.19,2.6l12.09,1.62
			c7.63,1.14,12.66,4.38,12.66,13.47v8.52c0,9.25-6.33,14.28-16.8,14.28H465.13z"/>
	</g>
	<path d="M368.25,155.56L257.79,258.44c-4.26,3.97-7.38,4.37-10.18,1.37l-16.88-18.12c-8.46-6.35,20.03-24.76,23.06-29.59
		l16.05-53.51l-56.26,52.4c-4.26,3.97-7.37,4.39-10.18,1.37l-17.43-18.72c-2.81-3.02-2.18-6.08,2.09-10.06l37.84-35.25l-18.78-20.16
		l-37.84,35.25c-4.26,3.97-7.38,4.37-10.19,1.35l-17.43-18.72c-2.8-3.01-2.18-6.08,2.09-10.06L254.21,33.12
		c4.26-3.97,7.38-4.37,10.18-1.37l17.43,18.72c2.81,3.02,2.19,6.1-2.07,10.07l-37,34.46l18.78,20.16l37-34.46
		c8.72-10.31,16.65,7.67,22.44,11.8c5.08,4.14,1.69,12.62,0.12,18.36c0,0-14.11,51.71-14.11,51.71l36.31-33.82
		c4.26-3.97,7.36-4.39,10.18-1.37l16.88,18.12C373.13,148.51,372.51,151.59,368.25,155.56z"/>
</g>
</svg>
