<?xml version="1.0" encoding="utf-8"?>
<!-- Generator: Adobe Illustrator 24.2.1, SVG Export Plug-In . SVG Version: 6.00 Build 0)  -->
<svg version="1.1" id="Layer_1" xmlns="http://www.w3.org/2000/svg" xmlns:xlink="http://www.w3.org/1999/xlink" x="0px" y="0px"
	 viewBox="0 0 615 84" style="enable-background:new 0 0 615 84;" xml:space="preserve" fill="#172b4d">
<g>
	<path d="M110.35,71.22c-2.03,0-2.92-0.89-2.92-2.92V15.7c0-2.03,0.89-2.92,2.92-2.92h12.58c2.03,0,2.92,0.89,2.92,2.92v17.61h13.55
		V15.7c0-2.03,0.89-2.92,2.92-2.92h12.58c2.03,0,2.92,0.89,2.92,2.92V68.3c0,2.03-0.89,2.92-2.92,2.92h-12.58
		c-2.03,0-2.92-0.89-2.92-2.92V50.28h-13.55V68.3c0,2.03-0.89,2.92-2.92,2.92H110.35z"/>
	<path d="M182.66,71.22h-11.93c-2.03,0-2.92-0.89-2.92-2.92V46.87c0-3.25,0.97-7.3,3.17-12.99l7.06-18.42
		c0.65-1.87,1.95-2.68,4.14-2.68h21.83c2.11,0,3.41,0.81,4.06,2.68l7.06,18.42c2.19,5.68,3.17,9.74,3.17,12.99V68.3
		c0,2.03-0.89,2.92-2.92,2.92h-12.26c-2.19,0-3.17-0.89-3.17-2.92V56.93h-14.37V68.3C185.59,70.33,184.69,71.22,182.66,71.22z
		 M186.4,42.16h12.74l-3.81-12.34c-0.41-0.97-0.89-1.38-1.54-1.38h-2.03c-0.65,0-1.14,0.41-1.54,1.38L186.4,42.16z"/>
	<path d="M247.35,71.22c-13.63,0-19.97-5.28-19.97-16.56V29.42c0-11.36,6.33-16.64,19.97-16.64h19.8c2.03,0,2.92,0.89,2.92,2.92
		v9.82c0,2.03-0.89,2.92-2.92,2.92h-16.31c-3.41,0-4.95,1.3-4.95,4.06v19.32c0,2.68,1.54,3.9,4.95,3.9h16.31
		c2.03,0,2.92,0.89,2.92,2.92v9.66c0,2.03-0.89,2.92-2.92,2.92H247.35z"/>
	<path d="M282.18,71.22c-2.03,0-2.92-0.89-2.92-2.92V15.7c0-2.03,0.89-2.92,2.92-2.92h12.58c2.03,0,2.92,0.89,2.92,2.92v18.67h3.25
		l8.36-18.91c0.81-1.95,1.95-2.68,4.06-2.68h12.5c1.87,0,2.52,0.97,1.79,2.68l-8.28,18.91c6.09,0.32,9.98,4.54,9.98,11.04V68.3
		c0,2.03-0.89,2.92-2.92,2.92h-12.5c-2.03,0-2.92-0.89-2.92-2.92V52.47c0-1.79-0.89-2.76-2.6-2.76h-10.71V68.3
		c0,2.03-0.89,2.92-2.92,2.92H282.18z"/>
	<path d="M342.73,71.22c-2.03,0-2.92-0.89-2.92-2.92V15.7c0-2.03,0.89-2.92,2.92-2.92h8.44c2.11,0,3.41,0.57,4.79,2.19l15.75,18.02
		V15.7c0-2.03,0.89-2.92,2.92-2.92h12.17c2.03,0,2.92,0.89,2.92,2.92V68.3c0,2.03-0.89,2.92-2.92,2.92h-12.17
		c-2.03,0-2.92-0.89-2.92-2.92v-9.98l-13.88-16.8V68.3c0,2.03-0.89,2.92-2.92,2.92H342.73z"/>
	<path d="M425.27,72.44c-20.29,0-25.24-6.66-25.24-16.56V28.2c0-9.9,4.95-16.64,25.24-16.64c20.29,0,25.16,6.74,25.16,16.64v27.68
		C450.43,65.78,445.56,72.44,425.27,72.44z M425.27,56.77c5.92,0,6.82-1.62,6.82-3.81V31.12c0-2.11-0.89-3.73-6.82-3.73
		c-5.84,0-6.82,1.62-6.82,3.73v21.83C418.45,55.15,419.43,56.77,425.27,56.77z"/>
	<path d="M474.79,71.22c-2.03,0-2.92-0.89-2.92-2.92V28.45h-11.93c-2.03,0-2.92-0.89-2.92-2.92V15.7c0-2.03,0.89-2.92,2.92-2.92
		h42.85c2.03,0,2.92,0.89,2.92,2.92v9.82c0,2.03-0.89,2.92-2.92,2.92h-11.93V68.3c0,2.03-0.89,2.92-2.92,2.92H474.79z"/>
	<path d="M516.51,71.22c-2.03,0-2.92-0.89-2.92-2.92V15.7c0-2.03,0.89-2.92,2.92-2.92h37.66c2.03,0,2.92,0.89,2.92,2.92v9.5
		c0,2.03-0.89,2.92-2.92,2.92h-22.4v6.25h15.83c2.03,0,2.92,0.89,2.92,2.92v8.68c0,2.03-0.89,2.92-2.92,2.92h-15.83v6.98h22.4
		c2.03,0,2.92,0.89,2.92,2.92v9.5c0,2.03-0.89,2.92-2.92,2.92H516.51z"/>
	<path d="M568.13,71.22c-2.03,0-2.92-0.89-2.92-2.92v-9.5c0-2.03,0.89-2.92,2.92-2.92h21.83c1.38,0,2.11-1.06,2.11-2.35
		c0-1.87-0.73-2.6-2.11-2.76l-12.17-1.7c-7.63-1.14-12.58-4.38-12.58-13.47v-8.52c0-9.25,6.25-14.28,16.8-14.28h22.73
		c2.03,0,2.92,0.89,2.92,2.92v9.66c0,2.03-0.89,2.92-2.92,2.92h-18.91c-1.38,0-2.19,0.97-2.19,2.44s0.81,2.43,2.19,2.6l12.09,1.62
		c7.63,1.14,12.66,4.38,12.66,13.47v8.52c0,9.25-6.33,14.28-16.8,14.28H568.13z"/>
</g>
<path d="M84.64,45.54L44.65,82.79c-1.54,1.44-2.67,1.58-3.69,0.5l-6.11-6.56c-3.06-2.3,7.25-8.97,8.35-10.72l5.81-19.37L28.64,65.61
	c-1.54,1.44-2.67,1.59-3.69,0.5l-6.31-6.78c-1.02-1.09-0.79-2.2,0.76-3.64l13.7-12.76l-6.8-7.3l-13.7,12.76
	c-1.54,1.44-2.67,1.58-3.69,0.49L2.6,42.1c-1.01-1.09-0.79-2.2,0.76-3.64L43.35,1.21c1.54-1.44,2.67-1.58,3.69-0.5l6.31,6.78
	c1.02,1.09,0.79,2.21-0.75,3.65L39.2,23.62l6.8,7.3l13.4-12.48c3.16-3.73,6.03,2.78,8.13,4.27c1.84,1.5,0.61,4.57,0.04,6.65
	c0,0-5.11,18.72-5.11,18.72L75.6,35.83c1.54-1.44,2.67-1.59,3.69-0.5l6.11,6.56C86.41,42.99,86.18,44.1,84.64,45.54z"/>
</svg>
